<?xml version="1.0" encoding="utf-8"?>
<?xml-stylesheet type="text/xsl" href="rss1.xsl"?>
<rss version="2.0" xmlns:atom="http://www.w3.org/2005/Atom" xmlns:content="http://purl.org/rss/1.0/modules/content/" xmlns:dc="http://purl.org/dc/elements/1.1/" xmlns:media="http://search.yahoo.com/mrss/">
<channel>
 <title>Getty</title>
 <link>http://www.gettyimg.com/</link>
 <atom:link href="http://www.gettyimg.com/" rel="self" type="application/rss+xml" />

 
                <item>
                <title><![CDATA[【Instrumentals / Karaoke (lossy)】PACK - Cher Official Instrumentals]]></title>
                <link><![CDATA[https://sharemania.us/threads/cher-official-instrumentals.233651/]]></link>
                <description><![CDATA[<article>
<blockquote class="messageText SelectQuoteContainer ugc baseHtml">
If anyone wants here i compiled every official instrumentals that i could find for Cher songs<br>
Track list:<br>
Back on the Street Again Instrumental<br>
Believe Instrumental<br>
DJ Play A Christmas Song (Extended Instrumental)<br>
DJ Play A Christmas Song (Chrome Tapes Instrumental)<br>
Do I Ever Cross Your Mind Instrumental<br>
Dov'è L'amore (Ray Roc's Latin Soul Instrumental Extended<br>
Dov'è L'amore (Ray Roc's Latin Soul Instrumental<br>
Games Instrumental<br>
I Walk Alone (Ivan Gomez &amp; Nacho Chapado Instrumental)<br>
If I Could Turn Back Time (TNT Radio Remix Instrumental)<br>
One by One (US Edit Instrumental)<br>
Piu Che Puoi (Eros Radio Mix Instrumental)<br>
Red (Cosmic Dawn Radio Edit Instrumental)<br>
Rudy Instrumental<br>
Say What's on Your Mind Instrumental<br>
Song For The Lonely (Thunderpuss Instrumental)<br>
Song For The Lonely (Thunderpuss Sunrise Instrumental)<br>
Take It Like A Man (JRMX Club Instrumental) (minus)<br>
Take It Like A Man (Nikno Instrumental)<br>
Take It Like a Man (Over-The-Top Instrumental)<br>
Take It Like A Man (Tony Moran Instrumental) (minus)<br>
Take Me Home (John Morales M+M Classic Mix Instrumental)<br>
The Book of Love Instrumental<br>
Walk With Me Instrumental<br>
Walking In Memphis Shut Up and Dance Remix Istrumental<br>
When the Love Is Gone Instrumental<br>
You Haven'T See The Last Of Me Stonebridge Club Remix Instrumental<br>
You Haven't Seen The Last Of Me (Almighty Radio Instrumental)<br>
Take It Like A Man (Edson Pride Remix) low vocal volume <a href="https://drive.google.com/drive/folders/10FDt0DKu1hLcSAdS_PSTTVuMinmXlJuF?usp=sharing" target="_blank" class="externalLink" rel="nofollow">https://drive.google.com/drive/folders/10FDt0DKu1hLcSAdS_PSTTVuMinmXlJuF?usp=sharing</a>
<div class="messageTextEndMarker">&nbsp;</div>
</blockquote>
</article>]]></description>
                <author><![CDATA[hnata1240]]></author>
                </item>

                
                <item>
                <title><![CDATA[【Apple Music】WEB-RiP - Becky G - Can't Get Enough ft. Pitbull (1080p)]]></title>
                <link><![CDATA[https://sharemania.us/threads/becky-g-cant-get-enough-ft-pitbull-1080p.233650/]]></link>
                <description><![CDATA[<article>
<blockquote class="messageText SelectQuoteContainer ugc baseHtml">
<img src="https://i.imgur.com/pH7177b.jpg" class="bbCodeImage LbImage" alt="[​IMG]" data-url="https://i.imgur.com/pH7177b.jpg" style=""><br>
<br>
<div class="bbCodeBlock bbCodeCode">
<div class="type">Code:</div>
<pre>General
Complete name                  : G:\Новая папка\Becky G - Can't Get Enough ft. Pitbull.mp4
Format                         : MPEG-4
Format profile                 : Base Media
Codec ID                       : isom (isom/iso2/avc1/mp41)
File size                      : 277 MiB
Duration                       : 3 min 48 s
Overall bit rate               : 10.2 Mb/s
Frame rate                     : 23.976 FPS
Movie name                     : Can't Get Enough (feat. Pitbull)
Performer                      : Becky G.
Genre                          : Pop
ContentType                    : Music Video
Recorded date                  : 2014-05-13 07:00:00 UTC
Writing application            : Lavf56.30.100
Copyright                      : ℗ (C) 2014 Kemosabe Records

Video
ID                             : 1
Format                         : AVC
Format/Info                    : Advanced Video Codec
Format profile                 : High@L4
Format settings                : CABAC / 4 Ref Frames
Format settings, CABAC         : Yes
Format settings, Reference fra : 4 frames
Codec ID                       : avc1
Codec ID/Info                  : Advanced Video Coding
Duration                       : 3 min 48 s
Bit rate                       : 9 918 kb/s
Width                          : 1 920 pixels
Height                         : 1 080 pixels
Display aspect ratio           : 16:9
Frame rate mode                : Variable
Frame rate                     : 23.976 FPS
Minimum frame rate             : 23.976 FPS
Maximum frame rate             : 24.169 FPS
Color space                    : YUV
Chroma subsampling             : 4:2:0
Bit depth                      : 8 bits
Scan type                      : Progressive
Bits/(Pixel*Frame)             : 0.199
Stream size                    : 270 MiB (97%)
Language                       : English
Color range                    : Limited
Color primaries                : BT.709
Transfer characteristics       : BT.709
Matrix coefficients            : BT.709
Codec configuration box        : avcC

Audio
ID                             : 2
Format                         : AAC LC
Format/Info                    : Advanced Audio Codec Low Complexity
Codec ID                       : mp4a-40-2
Duration                       : 3 min 48 s
Bit rate mode                  : Constant
Bit rate                       : 256 kb/s
Channel(s)                     : 2 channels
Channel layout                 : L R
Sampling rate                  : 48.0 kHz
Frame rate                     : 46.875 FPS (1024 SPF)
Compression mode               : Lossy
Stream size                    : 6.98 MiB (3%)
Default                        : Yes
Alternate group                : 1

</pre>
</div>
<div class="bbCodeBlock bbCodeVfcHH HiddenContent">
<div class="attribution type">Hidden Content:</div>
<blockquote>You must either reply or click 'Like' to see the hidden information contained here.</blockquote>
</div>
<div class="messageTextEndMarker">&nbsp;</div>
</blockquote>
</article>]]></description>
                <author><![CDATA[vitalya3]]></author>
                </item>

                
                <item>
                <title><![CDATA[【Cinema Center】MOVIE - Wreck it Ralph [2012] 1080p.mp4]]></title>
                <link><![CDATA[https://sharemania.us/threads/wreck-it-ralph-2012-1080p-mp4.233648/]]></link>
                <description><![CDATA[<article>
<blockquote class="messageText SelectQuoteContainer ugc baseHtml">
<span data-s9e-mediaembed="googledrive" style="display:inline-block;width:100%;max-width:640px"><span style="display:block;overflow:hidden;position:relative;padding-bottom:75%"><iframe allowfullscreen="" loading="lazy" scrolling="no" src="//drive.google.com/file/d/1n-BqbWu8ESvM7wzXstRZ7N_XNhf6ED7H/preview" style="border:0;height:100%;left:0;position:absolute;width:100%"></iframe></span></span>
<div class="messageTextEndMarker">&nbsp;</div>
</blockquote>
</article>]]></description>
                <author><![CDATA[cupcake20043]]></author>
                </item>

                
                <item>
                <title><![CDATA[【Apple Music】WEB-RiP - Ellie Goulding - Starry Eyed (1080p)]]></title>
                <link><![CDATA[https://sharemania.us/threads/ellie-goulding-starry-eyed-1080p.233649/]]></link>
                <description><![CDATA[<article>
<blockquote class="messageText SelectQuoteContainer ugc baseHtml">
<img src="https://i.imgur.com/G7W8dNq.jpg" class="bbCodeImage LbImage" alt="[​IMG]" data-url="https://i.imgur.com/G7W8dNq.jpg" style=""><br>
<br>
<div class="bbCodeBlock bbCodeCode">
<div class="type">Code:</div>
<pre>General
Complete name                  : G:\Новая папка\Ellie Goulding - Starry Eyed.mp4
Format                         : MPEG-4
Format profile                 : Base Media
Codec ID                       : isom (isom/iso2/avc1/mp41)
File size                      : 145 MiB
Duration                       : 2 min 59 s
Overall bit rate               : 6 788 kb/s
Frame rate                     : 23.976 FPS
Movie name                     : Starry Eyed
Performer                      : Ellie Goulding
Genre                          : Pop
ContentType                    : Music Video
Recorded date                  : 2011-01-01 08:00:00 UTC
Writing application            : Lavf56.30.100
Copyright                      : ℗ 2011 Polydor Ltd. (UK)

Video
ID                             : 1
Format                         : AVC
Format/Info                    : Advanced Video Codec
Format profile                 : High@L4
Format settings                : CABAC / 4 Ref Frames
Format settings, CABAC         : Yes
Format settings, Reference fra : 4 frames
Codec ID                       : avc1
Codec ID/Info                  : Advanced Video Coding
Duration                       : 2 min 59 s
Bit rate                       : 6 538 kb/s
Width                          : 1 904 pixels
Height                         : 1 064 pixels
Display aspect ratio           : 16:9
Frame rate mode                : Variable
Frame rate                     : 23.976 FPS
Minimum frame rate             : 23.976 FPS
Maximum frame rate             : 24.743 FPS
Color space                    : YUV
Chroma subsampling             : 4:2:0
Bit depth                      : 8 bits
Scan type                      : Progressive
Bits/(Pixel*Frame)             : 0.135
Stream size                    : 140 MiB (96%)
Color range                    : Limited
Color primaries                : BT.709
Transfer characteristics       : BT.709
Matrix coefficients            : BT.709
Codec configuration box        : avcC

Audio
ID                             : 2
Format                         : AAC LC
Format/Info                    : Advanced Audio Codec Low Complexity
Codec ID                       : mp4a-40-2
Duration                       : 2 min 59 s
Bit rate mode                  : Constant
Bit rate                       : 247 kb/s
Channel(s)                     : 2 channels
Channel layout                 : L R
Sampling rate                  : 48.0 kHz
Frame rate                     : 46.875 FPS (1024 SPF)
Compression mode               : Lossy
Stream size                    : 5.28 MiB (4%)
Default                        : Yes
Alternate group                : 1

</pre>
</div>
<div class="bbCodeBlock bbCodeVfcHH HiddenContent">
<div class="attribution type">Hidden Content:</div>
<blockquote>You must either reply or click 'Like' to see the hidden information contained here.</blockquote>
</div>
<div class="messageTextEndMarker">&nbsp;</div>
</blockquote>
</article>]]></description>
                <author><![CDATA[vitalya3]]></author>
                </item>

                
                <item>
                <title><![CDATA[【Cinema Center】MOVIE - Frozen 2013 [1080p] BluRay.mp4]]></title>
                <link><![CDATA[https://sharemania.us/threads/frozen-2013-1080p-bluray-mp4.233647/]]></link>
                <description><![CDATA[<article>
<blockquote class="messageText SelectQuoteContainer ugc baseHtml">
Thank you so much
<div class="messageTextEndMarker">&nbsp;</div>
</blockquote>
</article>]]></description>
                <author><![CDATA[cupcake20043]]></author>
                </item>

                
                <item>
                <title><![CDATA[【Cinema Center】SERIES - スター・ウォーズ クローン大戦 VOLUME ONE (2003-2004) (DVD9 NTSC R2)]]></title>
                <link><![CDATA[https://sharemania.us/threads/%E3%82%B9%E3%82%BF%E3%83%BC%E3%83%BB%E3%82%A6%E3%82%A9%E3%83%BC%E3%82%BA-%E3%82%AF%E3%83%AD%E3%83%BC%E3%83%B3%E5%A4%A7%E6%88%A6-volume-one-2003-2004-dvd9-ntsc-r2.233645/]]></link>
                <description><![CDATA[<article>
<blockquote class="messageText SelectQuoteContainer ugc baseHtml">
<span data-s9e-mediaembed="googledrive" style="display:inline-block;width:100%;max-width:640px"><span style="display:block;overflow:hidden;position:relative;padding-bottom:75%"><iframe allowfullscreen="" loading="lazy" scrolling="no" src="//drive.google.com/file/d/1fsfmEyUUfgmjnVQ43qrY2T0RsMgaaafV/preview" style="border:0;height:100%;left:0;position:absolute;width:100%"></iframe></span></span>
<div class="messageTextEndMarker">&nbsp;</div>
</blockquote>
</article>]]></description>
                <author><![CDATA[Austin Zimmermann]]></author>
                </item>

                
                <item>
                <title><![CDATA[【Cinema Center】SERIES - スター・ウォーズ クローン大戦 VOLUME TWO (2005) (DVD9 NTSC R2)]]></title>
                <link><![CDATA[https://sharemania.us/threads/%E3%82%B9%E3%82%BF%E3%83%BC%E3%83%BB%E3%82%A6%E3%82%A9%E3%83%BC%E3%82%BA-%E3%82%AF%E3%83%AD%E3%83%BC%E3%83%B3%E5%A4%A7%E6%88%A6-volume-two-2005-dvd9-ntsc-r2.233646/]]></link>
                <description><![CDATA[<article>
<blockquote class="messageText SelectQuoteContainer ugc baseHtml">
<img src="https://st.cdjapan.co.jp/pictures/l/09/31/FXBA-29233.jpg?v=1" class="bbCodeImage LbImage" alt="[​IMG]" data-url="https://st.cdjapan.co.jp/pictures/l/09/31/FXBA-29233.jpg?v=1" style=""> <img src="https://st.cdjapan.co.jp/pictures/l/09/31/FXBA-29233_2.jpg?v=1" class="bbCodeImage LbImage" alt="[​IMG]" data-url="https://st.cdjapan.co.jp/pictures/l/09/31/FXBA-29233_2.jpg?v=1" style=""> <br>
<br>
<b>説明</b><br>
壮大なる『スター・ウォーズ』サーガは、エミー賞受賞の初ＤＶＤ化作品『スター・ウォース クローン大戦』へと続く、ゲンディ・タルタコフスキー監督によるこの短編アニメ集は、ショージ・ルーカスの世界観を見事に、かつダイナミックにアニメーション化しており、すべての世代が楽しめる作品となっている。<br>
<br>
『スター・ウォーズ クローン大戦 VOLUME ONE』は、『エピソード２／クローンの攻撃』と最新作『エピソード３／シスの復讐』を結ぶ掛け橋となる作品である。さあ、ジェダイ騎士団と勇敢なる共和国のクローン軍が、邪悪なシスの暗黒卿、ドゥークー伯爵率いる分離主義勢力のドロイド軍との戦いに挑む過程を追ってみよう。そして、アナキン・スカイウォーカーとオビ＝ワン・ケノービが一曜銀河系の英雄となったバトルや、本作で初見参となる『エピソード３』の新たなる脅威、グリーバス将軍の衝撃の目撃者となろう！！<br>
<br>
本作は『スター・ウォーズ』シリーズのＤＶＤコレクションに絶対欠かせない作品です。
<div class="messageTextEndMarker">&nbsp;</div>
</blockquote>
</article>]]></description>
                <author><![CDATA[Austin Zimmermann]]></author>
                </item>

                </channel></rss>